<svg width="1920" height="1080" viewBox="0 0 1920 1080" fill="none" xmlns="http://www.w3.org/2000/svg">
<g opacity="0.15">
<path d="M248.314 -421.875L248.989 -373.767C253.875 -25.4545 630.595 189.947 933.251 17.4805L976.747 -7.30506C1261.22 -169.412 1615.02 34.6049 1617.21 362.02L1617.98 476.523C1619.57 713.42 1853.27 878.78 2077.2 801.445V801.445" stroke="#909090" stroke-width="0.653416"/>
<path d="M232.346 -394.218L233.021 -346.11C237.907 2.20227 614.627 217.603 917.283 45.1372L960.778 20.3517C1245.26 -141.755 1599.05 62.2617 1601.24 389.677L1602.01 504.179C1603.6 741.077 1837.3 906.437 2061.23 829.101V829.101" stroke="#909090" stroke-width="0.653416"/>
<path d="M216.381 -366.562L217.056 -318.453C221.942 29.8589 598.662 245.26 901.318 72.7938L944.813 48.0083C1229.29 -114.098 1583.09 89.9183 1585.28 417.334L1586.05 531.836C1587.63 768.734 1821.34 934.094 2045.26 856.758V856.758" stroke="#909090" stroke-width="0.653416"/>
<path d="M200.412 -338.905L201.086 -290.797C205.972 57.515 582.692 272.916 885.349 100.45L928.844 75.6644C1213.32 -86.4423 1567.12 117.574 1569.31 444.99L1570.08 559.492C1571.66 796.39 1805.37 961.75 2029.3 884.414V884.414" stroke="#909090" stroke-width="0.653416"/>
<path d="M184.446 -311.25L185.121 -263.141C190.007 85.1708 566.727 300.572 869.383 128.106L912.878 103.32C1197.36 -58.7865 1551.15 145.23 1553.34 472.645L1554.11 587.148C1555.7 824.046 1789.4 989.406 2013.33 912.07V912.07" stroke="#909090" stroke-width="0.653416"/>
<path d="M168.475 -283.593L169.15 -235.484C174.036 112.828 550.756 328.229 853.412 155.763L896.907 130.977C1181.38 -31.1294 1535.18 172.887 1537.37 500.303L1538.14 614.805C1539.73 851.703 1773.43 1017.06 1997.36 939.727V939.727" stroke="#909090" stroke-width="0.653416"/>
<path d="M152.51 -255.936L153.185 -207.828C158.07 140.485 534.791 355.886 837.447 183.42L880.942 158.634C1165.42 -3.47267 1519.21 200.544 1521.41 527.959L1522.18 642.462C1523.76 879.359 1757.47 1044.72 1981.39 967.384V967.384" stroke="#909090" stroke-width="0.653416"/>
<path d="M136.543 -228.28L137.218 -180.172C142.103 168.14 518.824 383.541 821.48 211.075L864.975 186.29C1149.45 24.1831 1503.25 228.2 1505.44 555.615L1506.21 670.118C1507.8 907.015 1741.5 1072.38 1965.43 995.04V995.04" stroke="#909090" stroke-width="0.653416"/>
<path d="M120.574 -200.623L121.249 -152.515C126.135 195.797 502.855 411.198 805.511 238.732L849.007 213.947C1133.48 51.8399 1487.28 255.857 1489.47 583.272L1490.24 697.774C1491.83 934.672 1725.53 1100.03 1949.46 1022.7V1022.7" stroke="#909090" stroke-width="0.653416"/>
<path d="M104.608 -172.967L105.283 -124.859C110.169 223.453 486.889 438.854 789.545 266.388L833.041 241.603C1117.52 79.4961 1471.31 283.513 1473.51 610.928L1474.27 725.43C1475.86 962.328 1709.57 1127.69 1933.49 1050.35V1050.35" stroke="#909090" stroke-width="0.653416"/>
<path d="M88.6391 -145.311L89.3139 -97.203C94.1998 251.109 470.92 466.51 773.576 294.044L817.072 269.259C1101.55 107.152 1455.34 311.169 1457.54 638.584L1458.3 753.086C1459.89 989.984 1693.6 1155.34 1917.52 1078.01V1078.01" stroke="#909090" stroke-width="0.653416"/>
<path d="M72.6729 -117.655L73.3477 -69.5465C78.2336 278.766 454.954 494.167 757.61 321.701L801.105 296.915C1085.58 134.808 1439.38 338.825 1441.57 666.24L1442.34 780.743C1443.93 1017.64 1677.63 1183 1901.56 1105.66V1105.66" stroke="#909090" stroke-width="0.653416"/>
<path d="M56.7071 -89.9989L57.3819 -41.8908C62.2678 306.422 438.988 521.823 741.644 349.356L785.14 324.571C1069.62 162.464 1423.41 366.481 1425.61 693.896L1426.37 808.399C1427.96 1045.3 1661.67 1210.66 1885.59 1133.32V1133.32" stroke="#909090" stroke-width="0.653416"/>
<path d="M40.739 -62.3421L41.4138 -14.2339C46.2997 334.078 423.02 549.479 725.676 377.013L769.171 352.228C1053.65 190.121 1407.44 394.138 1409.64 721.553L1410.4 836.055C1411.99 1072.95 1645.7 1238.31 1869.62 1160.98V1160.98" stroke="#909090" stroke-width="0.653416"/>
<path d="M24.7709 -34.6853L25.4457 13.4228C30.3316 361.735 407.052 577.136 709.708 404.67L753.203 379.885C1037.68 217.778 1391.48 421.794 1393.67 749.21L1394.44 863.712C1396.02 1100.61 1629.73 1265.97 1853.65 1188.63V1188.63" stroke="#909090" stroke-width="0.653416"/>
<path d="M9.18148 -7.68363L9.8563 40.4245C14.7422 388.737 391.462 604.138 694.118 431.672L737.614 406.886C1022.09 244.78 1375.89 448.796 1378.08 776.212L1378.85 890.714C1380.43 1127.61 1614.14 1292.97 1838.07 1215.64V1215.64" stroke="#909090" stroke-width="0.653416"/>
<path d="M-6.408 19.3181L-5.73317 67.4263C-0.847288 415.739 375.873 631.14 678.529 458.673L722.024 433.888C1006.5 271.781 1360.3 475.798 1362.49 803.213L1363.26 917.716C1364.84 1154.61 1598.55 1319.97 1822.48 1242.64V1242.64" stroke="#909090" stroke-width="0.653416"/>
<path d="M-21.9975 46.3199L-21.3227 94.4281C-16.4368 442.74 360.283 658.141 662.939 485.675L706.435 460.89C990.912 298.783 1344.71 502.8 1346.9 830.215L1347.67 944.717C1349.26 1181.62 1582.96 1346.98 1806.89 1269.64V1269.64" stroke="#909090" stroke-width="0.653416"/>
<path d="M-37.587 73.3215L-36.9121 121.43C-32.0262 469.742 344.694 685.143 647.35 512.677L690.845 487.891C975.322 325.785 1329.12 529.801 1331.31 857.217L1332.08 971.719C1333.67 1208.62 1567.37 1373.98 1791.3 1296.64V1296.64" stroke="#909090" stroke-width="0.653416"/>
<path d="M-53.1764 100.323L-52.5016 148.431C-47.6157 496.744 329.104 712.145 631.761 539.678L675.256 514.893C959.733 352.786 1313.53 556.803 1315.72 884.218L1316.49 998.721C1318.08 1235.62 1551.78 1400.98 1775.71 1323.64V1323.64" stroke="#909090" stroke-width="0.653416"/>
<path d="M-68.7659 127.325L-68.091 175.433C-63.2051 523.745 313.515 739.146 616.171 566.68L659.667 541.895C944.143 379.788 1297.94 583.805 1300.13 911.22L1300.9 1025.72C1302.49 1262.62 1536.19 1427.98 1760.12 1350.64V1350.64" stroke="#909090" stroke-width="0.653416"/>
<path d="M-84.3553 154.327L-83.6805 202.435C-78.7946 550.747 297.925 766.148 600.582 593.682L644.077 568.896C928.554 406.79 1282.35 610.806 1284.54 938.222L1285.31 1052.72C1286.9 1289.62 1520.6 1454.98 1744.53 1377.65V1377.65" stroke="#909090" stroke-width="0.653416"/>
<path d="M-99.9447 181.328L-99.2699 229.436C-94.384 577.749 282.336 793.15 584.992 620.684L628.488 595.898C912.964 433.791 1266.76 637.808 1268.95 965.223L1269.72 1079.73C1271.31 1316.62 1505.01 1481.98 1728.94 1404.65V1404.65" stroke="#909090" stroke-width="0.653416"/>
<path d="M-115.534 208.33L-114.859 256.439C-109.974 604.751 266.747 820.152 569.403 647.686L612.898 622.9C897.375 460.794 1251.17 664.81 1253.36 992.226L1254.13 1106.73C1255.72 1343.63 1489.42 1508.99 1713.35 1431.65V1431.65" stroke="#909090" stroke-width="0.653416"/>
<path d="M-131.124 235.332L-130.449 283.44C-125.563 631.752 251.157 847.153 553.813 674.687L597.309 649.901C881.785 487.795 1235.58 691.811 1237.77 1019.23L1238.54 1133.73C1240.13 1370.63 1473.84 1535.99 1697.76 1458.65V1458.65" stroke="#909090" stroke-width="0.653416"/>
<path d="M-146.713 262.334L-146.038 310.442C-141.152 658.754 235.568 874.155 538.224 701.689L581.719 676.904C866.196 514.797 1219.99 718.813 1222.19 1046.23L1222.95 1160.73C1224.54 1397.63 1458.25 1562.99 1682.17 1485.65V1485.65" stroke="#909090" stroke-width="0.653416"/>
<path d="M-162.303 289.335L-161.628 337.443C-156.742 685.756 219.978 901.157 522.634 728.691L566.13 703.905C850.606 541.798 1204.4 745.815 1206.6 1073.23L1207.36 1187.73C1208.95 1424.63 1442.66 1589.99 1666.58 1512.65V1512.65" stroke="#909090" stroke-width="0.653416"/>
<path d="M-177.892 316.337L-177.217 364.445C-172.331 712.757 204.389 928.158 507.045 755.692L550.54 730.907C835.017 568.8 1188.81 772.817 1191.01 1100.23L1191.77 1214.73C1193.36 1451.63 1427.07 1616.99 1650.99 1539.66V1539.66" stroke="#909090" stroke-width="0.653416"/>
<path d="M-193.482 343.339L-192.807 391.447C-187.921 739.759 188.799 955.16 491.455 782.694L534.951 757.909C819.428 595.802 1173.22 799.819 1175.42 1127.23L1176.18 1241.74C1177.77 1478.63 1411.48 1643.99 1635.4 1566.66V1566.66" stroke="#909090" stroke-width="0.653416"/>
</g>
</svg>
